# Blender v2.93.0 OBJ File: ''
# www.blender.org
mtllib power_000001.mtl
o map_ob000_item_01_fireup
v 0.600000 -0.065423 0.344715
v -0.600000 0.783106 -0.503814
v 0.600000 0.783106 -0.503814
v -0.600000 -0.065423 0.344715
v -0.600000 0.942205 -0.344715
v 0.600000 0.942205 -0.344715
v -0.600000 0.093676 0.503814
v 0.600000 0.093676 0.503814
vt 0.000000 0.000000
vt 0.125000 0.250000
vt 0.000000 0.250000
vt 0.125000 0.000000
vt 0.125000 0.250000
vt 0.000000 0.237500
vt 0.125000 0.237500
vt 0.000000 0.250000
vt 0.000092 0.000092
vt 0.842042 0.842043
vt 0.000092 0.842042
vt 0.842042 0.000092
vt 0.842042 0.999908
vt 0.000092 0.999908
vt 0.000000 0.237500
vt 0.000000 0.250000
vt 0.125000 0.237500
vt 0.000000 0.237500
vt 0.125000 0.250000
vt 0.125000 0.237500
vn 0.0000 -0.7071 -0.7071
vn 0.0000 0.7071 -0.7071
vn 0.0000 0.7071 0.7071
vn 0.0000 -0.7071 0.7071
vn -1.0000 -0.0000 0.0000
vn 1.0000 -0.0000 0.0000
usemtl mat_map_ob000_item.007
s 1
f 1/1/1 2/2/1 3/3/1
f 1/1/1 4/4/1 2/2/1
f 3/5/2 5/6/2 6/7/2
f 3/5/2 2/8/2 5/6/2
f 6/9/3 7/10/3 8/11/3
f 6/9/3 5/12/3 7/10/3
f 8/11/4 4/13/4 1/14/4
f 8/11/4 7/10/4 4/13/4
f 7/15/5 2/2/5 4/16/5
f 7/15/5 5/17/5 2/2/5
f 6/18/6 1/19/6 3/3/6
f 6/18/6 8/20/6 1/19/6
